<svg width="709" height="167" viewBox="0 0 709 167" fill="none" xmlns="http://www.w3.org/2000/svg">
<g clip-path="url(#clip0_101_231)">
<mask id="mask0_101_231" style="mask-type:alpha" maskUnits="userSpaceOnUse" x="5" y="1" width="163" height="162">
<path d="M86.6161 162.313C131.421 162.313 167.742 126.202 167.742 81.6564C167.742 37.1111 131.421 1 86.6161 1C41.8115 1 5.49023 37.1111 5.49023 81.6564C5.49023 126.202 41.8115 162.313 86.6161 162.313Z" fill="#25884D"/>
</mask>
<g mask="url(#mask0_101_231)">
<path fill-rule="evenodd" clip-rule="evenodd" d="M123.528 153.499C112.456 159.134 99.9091 162.313 86.6159 162.313C72.5891 162.313 59.3938 158.774 47.8841 152.544C75.4937 142.709 82.9963 132.448 82.9963 113.292C82.9963 105.734 83.0169 99.4099 83.0467 94.211C78.2505 96.6765 70.9767 97.7049 66.1375 96.332C52.6085 92.4939 49.3206 74.5732 49.967 73.1078C50.8291 71.154 65.9729 65.9462 75.2526 69.2429C78.3411 70.3402 81.1457 72.288 83.3699 74.6568C84.1879 75.2593 89.7304 79.7054 89.7304 89.5508C89.7304 95.2205 89.7772 95.5492 89.832 95.9347C89.9098 96.4811 90.0037 97.1417 90.0037 113.292C90.0037 137.116 97.2173 145.513 123.528 153.499ZM123.528 153.499C149.776 140.143 167.742 112.985 167.742 81.6564C167.742 37.1111 131.42 1 86.6159 1C41.8113 1 5.49005 37.1111 5.49005 81.6564C5.49005 112.256 22.6293 138.876 47.8841 152.544C35.7961 156.85 19.8541 161.074 -1 165.928H174C170.609 165.139 167.347 164.384 164.211 163.659L164.185 163.652C147.193 159.722 133.882 156.642 123.528 153.499ZM107.306 73.7702C100.584 76.0376 88.7892 73.7702 85.8212 68.997C81.5915 62.1949 87.758 50.9048 96.8635 47.1589C105.969 43.413 121.352 47.8749 122.309 49.7842C123.028 51.2162 120.629 69.2761 107.306 73.7702Z" fill="#8A76FF"/>
</g>
<path d="M236.188 112.975C231.638 112.975 227.5 111.912 223.775 109.787C220.05 107.637 217.088 104.462 214.888 100.262C212.713 96.0375 211.625 90.8 211.625 84.55C211.625 78.3 212.8 73.0375 215.15 68.7625C217.5 64.4875 220.65 61.25 224.6 59.05C228.575 56.85 233 55.75 237.875 55.75C242 55.75 245.488 56.3875 248.338 57.6625C251.213 58.9375 253.538 60.575 255.313 62.575C257.113 64.55 258.413 66.625 259.213 68.8C260.038 70.975 260.45 72.9625 260.45 74.7625V75.2125H245.75V74.7625C245.75 72.8375 245.038 71.1375 243.613 69.6625C242.213 68.1875 240.3 67.45 237.875 67.45C236.225 67.45 234.563 67.9375 232.888 68.9125C231.213 69.8875 229.813 71.6125 228.688 74.0875C227.563 76.5375 227 80.025 227 84.55C227 87.95 227.313 90.75 227.937 92.95C228.588 95.125 229.425 96.825 230.45 98.05C231.5 99.25 232.65 100.1 233.9 100.6C235.175 101.075 236.438 101.312 237.688 101.312C240.363 101.312 242.475 100.7 244.025 99.475C245.575 98.225 246.513 96.975 246.838 95.725V93.625H237.613V83.1625H260.225V112H253.175L251.638 105.887C251.413 106.637 250.738 107.575 249.613 108.7C248.513 109.8 246.863 110.787 244.663 111.662C242.488 112.538 239.663 112.975 236.188 112.975ZM283.791 53.3875V112H268.903V53.3875H283.791ZM312.148 112.938C307.648 112.938 303.685 112.062 300.26 110.312C296.86 108.562 294.198 106.125 292.273 103C290.373 99.875 289.423 96.25 289.423 92.125C289.423 88 290.373 84.375 292.273 81.25C294.198 78.125 296.86 75.7 300.26 73.975C303.685 72.225 307.648 71.35 312.148 71.35C316.648 71.35 320.598 72.225 323.998 73.975C327.423 75.7 330.085 78.125 331.985 81.25C333.91 84.375 334.873 88 334.873 92.125C334.873 96.25 333.91 99.875 331.985 103C330.085 106.125 327.423 108.562 323.998 110.312C320.598 112.062 316.648 112.938 312.148 112.938ZM312.148 101.5C314.448 101.5 316.248 100.65 317.548 98.95C318.873 97.25 319.535 94.975 319.535 92.125C319.535 89.275 318.873 87.0125 317.548 85.3375C316.248 83.6625 314.448 82.825 312.148 82.825C309.848 82.825 308.035 83.6625 306.71 85.3375C305.41 87.0125 304.76 89.275 304.76 92.125C304.76 94.975 305.41 97.25 306.71 98.95C308.035 100.65 309.848 101.5 312.148 101.5ZM343.689 112L336.189 72.175H351.789L354.902 100.637L360.264 72.175H375.789L381.152 100.562L384.302 72.175H399.902L392.364 112H371.889L368.027 88.2625L364.239 112H343.689ZM442.839 112.975C438.839 112.975 435.214 112.387 431.964 111.212C428.714 110.037 426.139 108.287 424.239 105.962C422.339 103.637 421.389 100.762 421.389 97.3375C421.389 94.1125 422.401 91.3625 424.426 89.0875C426.476 86.7875 429.426 84.475 433.276 82.15C431.901 80.375 430.639 78.3625 429.489 76.1125C428.364 73.8625 427.801 71.5125 427.801 69.0625C427.801 66.7875 428.476 64.675 429.826 62.725C431.176 60.775 433.076 59.2 435.526 58C438.001 56.775 440.901 56.1625 444.226 56.1625C447.601 56.1625 450.476 56.7625 452.851 57.9625C455.251 59.1625 457.089 60.7375 458.364 62.6875C459.639 64.6375 460.276 66.7125 460.276 68.9125C460.276 72.2375 459.389 75.0875 457.614 77.4625C455.839 79.8375 453.251 82.1375 449.851 84.3625L457.801 93.6625C458.326 92.7125 458.739 91.625 459.039 90.4C459.364 89.175 459.526 87.6875 459.526 85.9375H471.751C471.751 89.7125 471.214 92.8875 470.139 95.4625C469.064 98.0375 467.764 100.25 466.239 102.1C466.589 102.2 466.914 102.275 467.214 102.325C467.539 102.35 467.826 102.363 468.076 102.363C468.726 102.363 469.426 102.275 470.176 102.1C470.951 101.9 471.501 101.737 471.826 101.612V112C471.651 112.075 471.051 112.25 470.026 112.525C469.026 112.8 467.701 112.938 466.051 112.938C464.576 112.938 463.001 112.663 461.326 112.113C459.651 111.587 458.201 110.787 456.976 109.712C454.951 110.737 452.751 111.537 450.376 112.113C448.001 112.688 445.489 112.975 442.839 112.975ZM440.176 69.775C440.176 70.725 440.464 71.7875 441.039 72.9625C441.614 74.1125 442.351 75.2875 443.251 76.4875C445.076 75.2625 446.389 74.1125 447.189 73.0375C448.014 71.9625 448.426 70.875 448.426 69.775C448.426 68.6 448.051 67.6625 447.301 66.9625C446.576 66.2375 445.589 65.875 444.339 65.875C443.114 65.875 442.114 66.2375 441.339 66.9625C440.564 67.6625 440.176 68.6 440.176 69.775ZM435.226 96.625C435.226 98.3 436.014 99.6625 437.589 100.712C439.164 101.762 440.976 102.287 443.026 102.287C445.376 102.287 447.526 101.887 449.476 101.087L440.101 90.2125C438.476 91.2875 437.251 92.325 436.426 93.325C435.626 94.3 435.226 95.4 435.226 96.625ZM521.979 112.975C517.429 112.975 513.291 111.912 509.566 109.787C505.841 107.637 502.879 104.462 500.679 100.262C498.504 96.0375 497.416 90.8 497.416 84.55C497.416 78.3 498.591 73.0375 500.941 68.7625C503.291 64.4875 506.441 61.25 510.391 59.05C514.366 56.85 518.791 55.75 523.666 55.75C527.791 55.75 531.279 56.3875 534.129 57.6625C537.004 58.9375 539.329 60.575 541.104 62.575C542.904 64.55 544.204 66.625 545.004 68.8C545.829 70.975 546.241 72.9625 546.241 74.7625V75.2125H531.541V74.7625C531.541 72.8375 530.829 71.1375 529.404 69.6625C528.004 68.1875 526.091 67.45 523.666 67.45C522.016 67.45 520.354 67.9375 518.679 68.9125C517.004 69.8875 515.604 71.6125 514.479 74.0875C513.354 76.5375 512.791 80.025 512.791 84.55C512.791 87.95 513.104 90.75 513.729 92.95C514.379 95.125 515.216 96.825 516.241 98.05C517.291 99.25 518.441 100.1 519.691 100.6C520.966 101.075 522.229 101.312 523.479 101.312C526.154 101.312 528.266 100.7 529.816 99.475C531.366 98.225 532.304 96.975 532.629 95.725V93.625H523.404V83.1625H546.016V112H538.966L537.429 105.887C537.204 106.637 536.529 107.575 535.404 108.7C534.304 109.8 532.654 110.787 530.454 111.662C528.279 112.538 525.454 112.975 521.979 112.975ZM554.132 112V72.175H569.282V77.6875C570.532 75.6625 572.144 74.1 574.119 73C576.094 71.9 578.382 71.35 580.982 71.35C582.607 71.35 583.832 71.4625 584.657 71.6875C585.507 71.8875 586.032 72.05 586.232 72.175L584.169 85.375C583.944 85.25 583.444 85.0625 582.669 84.8125C581.894 84.5375 580.957 84.4 579.857 84.4C577.257 84.4 575.182 84.9375 573.632 86.0125C572.082 87.0625 570.969 88.4125 570.294 90.0625C569.619 91.7125 569.282 93.425 569.282 95.2V112H554.132ZM611.415 112.938C606.915 112.938 602.953 112.062 599.528 110.312C596.128 108.562 593.465 106.125 591.54 103C589.64 99.875 588.69 96.25 588.69 92.125C588.69 88 589.64 84.375 591.54 81.25C593.465 78.125 596.128 75.7 599.528 73.975C602.953 72.225 606.915 71.35 611.415 71.35C615.915 71.35 619.865 72.225 623.265 73.975C626.69 75.7 629.353 78.125 631.253 81.25C633.178 84.375 634.14 88 634.14 92.125C634.14 96.25 633.178 99.875 631.253 103C629.353 106.125 626.69 108.562 623.265 110.312C619.865 112.062 615.915 112.938 611.415 112.938ZM611.415 101.5C613.715 101.5 615.515 100.65 616.815 98.95C618.14 97.25 618.803 94.975 618.803 92.125C618.803 89.275 618.14 87.0125 616.815 85.3375C615.515 83.6625 613.715 82.825 611.415 82.825C609.115 82.825 607.303 83.6625 605.978 85.3375C604.678 87.0125 604.028 89.275 604.028 92.125C604.028 94.975 604.678 97.25 605.978 98.95C607.303 100.65 609.115 101.5 611.415 101.5ZM642.957 112L635.457 72.175H651.057L654.17 100.637L659.532 72.175H675.057L680.42 100.562L683.57 72.175H699.17L691.632 112H671.157L667.295 88.2625L663.507 112H642.957Z" fill="white"/>
</g>
<defs>
<clipPath id="clip0_101_231">
<rect width="709" height="167" fill="white"/>
</clipPath>
</defs>
</svg>
